<mxfile host="drawio-plugin" modified="2023-05-26T17:44:47.137Z" agent="5.0 (Windows NT 6.2; Win64; x64) AppleWebKit/537.36 (KHTML, like Gecko) Chrome/104.0.5112.102 Safari/537.36" etag="cnL4o2JpAaYWqOFKDhX3" version="20.5.3" type="embed"><diagram id="C5RBs43oDa-KdzZeNtuy" name="Page-1"><mxGraphModel dx="1115" dy="1892" grid="1" gridSize="10" guides="1" tooltips="1" connect="1" arrows="1" fold="1" page="1" pageScale="1" pageWidth="827" pageHeight="1169" math="0" shadow="0"><root><mxCell id="WIyWlLk6GJQsqaUBKTNV-0"/><mxCell id="WIyWlLk6GJQsqaUBKTNV-1" parent="WIyWlLk6GJQsqaUBKTNV-0"/><mxCell id="1" value="fillMarkdownFile(): fills the fields of a null markdown file object based on BasicFileAttributes from Path" style="shape=note;whiteSpace=wrap;html=1;backgroundOutline=1;darkOpacity=0.05;shadow=0;fontColor=#FF6666;fillColor=#1ba1e2;strokeColor=#006EAF;opacity=40;" parent="WIyWlLk6GJQsqaUBKTNV-1" vertex="1"><mxGeometry x="-460" y="-50" width="180" height="100" as="geometry"/></mxCell><mxCell id="z7qbPHOdlYPvQ8ULGpwd-0" value="MarkdownFile" style="swimlane;fontStyle=1;align=center;verticalAlign=top;childLayout=stackLayout;horizontal=1;startSize=26;horizontalStack=0;resizeParent=1;resizeParentMax=0;resizeLast=0;collapsible=1;marginBottom=0;whiteSpace=wrap;html=1;fillColor=#1ba1e2;fontColor=#ffffff;strokeColor=#006EAF;opacity=40;" parent="WIyWlLk6GJQsqaUBKTNV-1" vertex="1"><mxGeometry x="-210" y="-5" width="220" height="230" as="geometry"/></mxCell><mxCell id="z7qbPHOdlYPvQ8ULGpwd-1" value="- filename: String&lt;br&gt;- created: FileTime&lt;br&gt;- modified: FileTime&lt;br&gt;- contents: String&lt;br&gt;- path: Path" style="text;strokeColor=#006EAF;fillColor=#1ba1e2;align=left;verticalAlign=top;spacingLeft=4;spacingRight=4;overflow=hidden;rotatable=0;points=[[0,0.5],[1,0.5]];portConstraint=eastwest;whiteSpace=wrap;html=1;fontColor=#ffffff;opacity=40;" parent="z7qbPHOdlYPvQ8ULGpwd-0" vertex="1"><mxGeometry y="26" width="220" height="94" as="geometry"/></mxCell><mxCell id="z7qbPHOdlYPvQ8ULGpwd-2" value="" style="line;strokeWidth=1;fillColor=#1ba1e2;align=left;verticalAlign=middle;spacingTop=-1;spacingLeft=3;spacingRight=3;rotatable=0;labelPosition=right;points=[];portConstraint=eastwest;strokeColor=#006EAF;fontColor=#ffffff;opacity=40;" parent="z7qbPHOdlYPvQ8ULGpwd-0" vertex="1"><mxGeometry y="120" width="220" height="8" as="geometry"/></mxCell><mxCell id="z7qbPHOdlYPvQ8ULGpwd-3" value="+ fillMarkdownFile(): void&amp;nbsp;&lt;br&gt;+ transform(): void&lt;br&gt;- removeN(): String&lt;br&gt;&lt;span style=&quot;background-color: rgb(0, 138, 0);&quot;&gt;+ containsProblem(): Boolean&lt;br&gt;+ extractProblem(): String&lt;br&gt;+ removeProblem(): void&lt;br&gt;&lt;/span&gt;" style="text;strokeColor=#006EAF;fillColor=#1ba1e2;align=left;verticalAlign=top;spacingLeft=4;spacingRight=4;overflow=hidden;rotatable=0;points=[[0,0.5],[1,0.5]];portConstraint=eastwest;whiteSpace=wrap;html=1;fontColor=#ffffff;opacity=40;" parent="z7qbPHOdlYPvQ8ULGpwd-0" vertex="1"><mxGeometry y="128" width="220" height="102" as="geometry"/></mxCell><mxCell id="z7qbPHOdlYPvQ8ULGpwd-12" value="FileExplorer&lt;br&gt;implements (FileVisitor&amp;lt;Path&amp;gt;)&amp;nbsp;" style="swimlane;fontStyle=1;align=center;verticalAlign=top;childLayout=stackLayout;horizontal=1;startSize=50;horizontalStack=0;resizeParent=1;resizeParentMax=0;resizeLast=0;collapsible=1;marginBottom=0;whiteSpace=wrap;html=1;fillColor=#1ba1e2;fontColor=#ffffff;strokeColor=#006EAF;opacity=40;" parent="WIyWlLk6GJQsqaUBKTNV-1" vertex="1"><mxGeometry x="246" y="-240" width="250" height="224" as="geometry"/></mxCell><mxCell id="z7qbPHOdlYPvQ8ULGpwd-13" value="+ mdCollection: ArrayList&amp;lt;MarkdownFile&amp;gt;" style="text;strokeColor=#006EAF;fillColor=#1ba1e2;align=left;verticalAlign=top;spacingLeft=4;spacingRight=4;overflow=hidden;rotatable=0;points=[[0,0.5],[1,0.5]];portConstraint=eastwest;whiteSpace=wrap;html=1;fontColor=#ffffff;opacity=40;" parent="z7qbPHOdlYPvQ8ULGpwd-12" vertex="1"><mxGeometry y="50" width="250" height="74" as="geometry"/></mxCell><mxCell id="z7qbPHOdlYPvQ8ULGpwd-14" value="" style="line;strokeWidth=1;fillColor=#1ba1e2;align=left;verticalAlign=middle;spacingTop=-1;spacingLeft=3;spacingRight=3;rotatable=0;labelPosition=right;points=[];portConstraint=eastwest;strokeColor=#006EAF;fontColor=#ffffff;opacity=40;" parent="z7qbPHOdlYPvQ8ULGpwd-12" vertex="1"><mxGeometry y="124" width="250" height="8" as="geometry"/></mxCell><mxCell id="z7qbPHOdlYPvQ8ULGpwd-15" value="&amp;nbsp;+ readFromFile(File file): String &lt;br&gt;&lt;span style=&quot;background-color: initial;&quot;&gt;&amp;nbsp;+ visitFile(): FileVisitResult&lt;/span&gt;&lt;br&gt;&lt;p style=&quot;margin: 0px 0px 0px 4px;&quot;&gt;+ postVisitDirectory(): FileVisitResult&lt;/p&gt;&lt;p style=&quot;margin: 0px 0px 0px 4px;&quot;&gt;&lt;span style=&quot;background-color: initial;&quot;&gt;+ preVisitDirectory(): FileVisitResult&lt;/span&gt;&lt;/p&gt;&lt;p style=&quot;margin: 0px 0px 0px 4px;&quot;&gt;&lt;span style=&quot;background-color: initial;&quot;&gt;+ visitFileFailed(): FileVisitResult&lt;/span&gt;&lt;/p&gt;" style="text;strokeColor=#006EAF;fillColor=#1ba1e2;align=left;verticalAlign=top;spacingLeft=4;spacingRight=4;overflow=hidden;rotatable=0;points=[[0,0.5],[1,0.5]];portConstraint=eastwest;whiteSpace=wrap;html=1;fontColor=#ffffff;opacity=40;" parent="z7qbPHOdlYPvQ8ULGpwd-12" vertex="1"><mxGeometry y="132" width="250" height="92" as="geometry"/></mxCell><mxCell id="z7qbPHOdlYPvQ8ULGpwd-23" value="&lt;p style=&quot;margin:0px;margin-top:4px;text-align:center;&quot;&gt;&lt;i&gt;&amp;lt;&amp;lt;Interface&amp;gt;&amp;gt;&lt;/i&gt;&lt;br&gt;&lt;b&gt;Comparable&amp;lt;T&amp;gt;&lt;/b&gt;&lt;/p&gt;&lt;hr size=&quot;1&quot;&gt;&lt;p style=&quot;margin:0px;margin-left:4px;&quot;&gt;&lt;span style=&quot;background-color: initial;&quot;&gt;+&amp;nbsp; compareTo&amp;lt;T o&amp;gt;: Int&lt;/span&gt;&lt;/p&gt;" style="verticalAlign=top;align=left;overflow=fill;fontSize=12;fontFamily=Helvetica;html=1;whiteSpace=wrap;fillColor=#1ba1e2;fontColor=#ffffff;strokeColor=#006EAF;opacity=40;" parent="WIyWlLk6GJQsqaUBKTNV-1" vertex="1"><mxGeometry x="-337.5" y="-560" width="190" height="140" as="geometry"/></mxCell><mxCell id="z7qbPHOdlYPvQ8ULGpwd-28" value="Scanner" style="swimlane;fontStyle=1;align=center;verticalAlign=top;childLayout=stackLayout;horizontal=1;startSize=26;horizontalStack=0;resizeParent=1;resizeParentMax=0;resizeLast=0;collapsible=1;marginBottom=0;whiteSpace=wrap;html=1;fillColor=#1ba1e2;fontColor=#ffffff;strokeColor=#006EAF;opacity=40;" parent="WIyWlLk6GJQsqaUBKTNV-1" vertex="1"><mxGeometry x="530" y="-176" width="160" height="160" as="geometry"/></mxCell><mxCell id="z7qbPHOdlYPvQ8ULGpwd-30" value="" style="line;strokeWidth=1;fillColor=#1ba1e2;align=left;verticalAlign=middle;spacingTop=-1;spacingLeft=3;spacingRight=3;rotatable=0;labelPosition=right;points=[];portConstraint=eastwest;strokeColor=#006EAF;fontColor=#ffffff;opacity=40;" parent="z7qbPHOdlYPvQ8ULGpwd-28" vertex="1"><mxGeometry y="26" width="160" height="8" as="geometry"/></mxCell><mxCell id="z7qbPHOdlYPvQ8ULGpwd-31" value="- hasNext(): Boolean&lt;br&gt;- hasNextInt(): Boolean&lt;br&gt;- next(): String&lt;br&gt;- nextInt(): Int&lt;br&gt;- nextLine(): String&lt;br&gt;- isMdFile(): Boolean&lt;br&gt;inputFile(): MarkdownFile" style="text;strokeColor=#006EAF;fillColor=#1ba1e2;align=left;verticalAlign=top;spacingLeft=4;spacingRight=4;overflow=hidden;rotatable=0;points=[[0,0.5],[1,0.5]];portConstraint=eastwest;whiteSpace=wrap;html=1;fontColor=#ffffff;opacity=40;" parent="z7qbPHOdlYPvQ8ULGpwd-28" vertex="1"><mxGeometry y="34" width="160" height="126" as="geometry"/></mxCell><mxCell id="z7qbPHOdlYPvQ8ULGpwd-37" value="&lt;p style=&quot;margin:0px;margin-top:4px;text-align:center;&quot;&gt;&lt;i&gt;&amp;lt;&amp;lt;Interface&amp;gt;&amp;gt;&lt;/i&gt;&lt;br&gt;&lt;b&gt;FileVisitor&amp;lt;T&amp;gt;&lt;/b&gt;&lt;/p&gt;&lt;hr size=&quot;1&quot;&gt;&lt;p style=&quot;margin:0px;margin-left:4px;&quot;&gt;- visitFile(): FileVisitResult&lt;/p&gt;&lt;p style=&quot;margin:0px;margin-left:4px;&quot;&gt;- postVisitDirectory(): FileVisitResult&lt;/p&gt;&lt;p style=&quot;margin:0px;margin-left:4px;&quot;&gt;- preVisitDirectory(): FileVisitResult&lt;/p&gt;&lt;p style=&quot;margin:0px;margin-left:4px;&quot;&gt;- visitFileFailed(): FileVisitResult&lt;/p&gt;" style="verticalAlign=top;align=left;overflow=fill;fontSize=12;fontFamily=Helvetica;html=1;whiteSpace=wrap;fillColor=#1ba1e2;fontColor=#ffffff;strokeColor=#006EAF;opacity=40;" parent="WIyWlLk6GJQsqaUBKTNV-1" vertex="1"><mxGeometry x="234" y="-410" width="256" height="120" as="geometry"/></mxCell><mxCell id="26" style="edgeStyle=orthogonalEdgeStyle;rounded=0;orthogonalLoop=1;jettySize=auto;html=1;exitX=0;exitY=0;exitDx=70;exitDy=0;exitPerimeter=0;entryX=0.487;entryY=1.003;entryDx=0;entryDy=0;entryPerimeter=0;fillColor=#1ba1e2;strokeColor=#FFFF33;" parent="WIyWlLk6GJQsqaUBKTNV-1" source="z7qbPHOdlYPvQ8ULGpwd-41" target="9" edge="1"><mxGeometry relative="1" as="geometry"><Array as="points"><mxPoint x="120" y="190"/></Array></mxGeometry></mxCell><mxCell id="93" value="" style="edgeStyle=orthogonalEdgeStyle;rounded=0;orthogonalLoop=1;jettySize=auto;html=1;" parent="WIyWlLk6GJQsqaUBKTNV-1" source="z7qbPHOdlYPvQ8ULGpwd-41" target="9" edge="1"><mxGeometry relative="1" as="geometry"/></mxCell><mxCell id="z7qbPHOdlYPvQ8ULGpwd-41" value="Can Create Enum for the modified, filename, created inputs that must go into sort" style="shape=note;whiteSpace=wrap;html=1;backgroundOutline=1;darkOpacity=0.05;fontColor=#FF6666;fillColor=#1ba1e2;strokeColor=#006EAF;opacity=40;" parent="WIyWlLk6GJQsqaUBKTNV-1" vertex="1"><mxGeometry x="50" y="270" width="170" height="100" as="geometry"/></mxCell><mxCell id="4" style="edgeStyle=orthogonalEdgeStyle;rounded=0;orthogonalLoop=1;jettySize=auto;html=1;exitX=0;exitY=0;exitDx=180;exitDy=65;exitPerimeter=0;fillColor=#1ba1e2;strokeColor=#FFFF33;entryX=0;entryY=0.5;entryDx=0;entryDy=0;" parent="WIyWlLk6GJQsqaUBKTNV-1" source="0" target="z7qbPHOdlYPvQ8ULGpwd-3" edge="1"><mxGeometry relative="1" as="geometry"><mxPoint x="-210" y="160" as="targetPoint"/><Array as="points"><mxPoint x="-237" y="125"/><mxPoint x="-237" y="160"/><mxPoint x="-210" y="160"/></Array></mxGeometry></mxCell><mxCell id="0" value="transform(): transforms the contents field of a given markdownFile to the desired output with headers and important bullets only&amp;nbsp;" style="shape=note;whiteSpace=wrap;html=1;backgroundOutline=1;darkOpacity=0.05;fontColor=#FF6666;fillColor=#1ba1e2;strokeColor=#006EAF;opacity=40;" parent="WIyWlLk6GJQsqaUBKTNV-1" vertex="1"><mxGeometry x="-460" y="60" width="180" height="100" as="geometry"/></mxCell><mxCell id="18" style="edgeStyle=orthogonalEdgeStyle;rounded=0;orthogonalLoop=1;jettySize=auto;html=1;exitX=0;exitY=0;exitDx=180;exitDy=65;exitPerimeter=0;fillColor=#1ba1e2;strokeColor=#FFFF33;" parent="WIyWlLk6GJQsqaUBKTNV-1" source="1" edge="1"><mxGeometry relative="1" as="geometry"><Array as="points"><mxPoint x="-230" y="15"/><mxPoint x="-230" y="142"/></Array><mxPoint x="-210" y="142" as="targetPoint"/></mxGeometry></mxCell><mxCell id="3" style="edgeStyle=orthogonalEdgeStyle;rounded=0;orthogonalLoop=1;jettySize=auto;html=1;exitX=0;exitY=0;exitDx=180;exitDy=65;exitPerimeter=0;entryX=-0.012;entryY=0.658;entryDx=0;entryDy=0;entryPerimeter=0;fillColor=#1ba1e2;strokeColor=#FFFF33;" parent="WIyWlLk6GJQsqaUBKTNV-1" source="2" target="z7qbPHOdlYPvQ8ULGpwd-3" edge="1"><mxGeometry relative="1" as="geometry"/></mxCell><mxCell id="2" value="RemoveN(): Removes a new line character (\n) if the important phrase takes place between multiple lines" style="shape=note;whiteSpace=wrap;html=1;backgroundOutline=1;darkOpacity=0.05;fontColor=#FF6666;fillColor=#1ba1e2;strokeColor=#006EAF;opacity=40;" parent="WIyWlLk6GJQsqaUBKTNV-1" vertex="1"><mxGeometry x="-460" y="170" width="180" height="100" as="geometry"/></mxCell><mxCell id="6" value="Flag (enum)" style="swimlane;fontStyle=0;childLayout=stackLayout;horizontal=1;startSize=26;fillColor=#1ba1e2;horizontalStack=0;resizeParent=1;resizeParentMax=0;resizeLast=0;collapsible=1;marginBottom=0;fontColor=#ffffff;strokeColor=#006EAF;opacity=40;" parent="WIyWlLk6GJQsqaUBKTNV-1" vertex="1"><mxGeometry x="40" y="10" width="180" height="180" as="geometry"/></mxCell><mxCell id="7" value="- Flag.FILENAME (&quot;filename&quot;)" style="text;strokeColor=#006EAF;fillColor=#1ba1e2;align=left;verticalAlign=top;spacingLeft=4;spacingRight=4;overflow=hidden;rotatable=0;points=[[0,0.5],[1,0.5]];portConstraint=eastwest;fontColor=#ffffff;opacity=40;" parent="6" vertex="1"><mxGeometry y="26" width="180" height="26" as="geometry"/></mxCell><mxCell id="8" value="- Flag.CREATED (&quot;created&quot;)" style="text;strokeColor=#006EAF;fillColor=#1ba1e2;align=left;verticalAlign=top;spacingLeft=4;spacingRight=4;overflow=hidden;rotatable=0;points=[[0,0.5],[1,0.5]];portConstraint=eastwest;fontColor=#ffffff;opacity=40;" parent="6" vertex="1"><mxGeometry y="52" width="180" height="26" as="geometry"/></mxCell><mxCell id="9" value="- Flag.MODIFIED (&quot;modified&quot;)&#10;&#10;- //built in enum operators &#10;- Values(): array[Flag]&#10;&#10;- ValueOf(): Flag.enumValue&#10;" style="text;strokeColor=#006EAF;fillColor=#1ba1e2;align=left;verticalAlign=top;spacingLeft=4;spacingRight=4;overflow=hidden;rotatable=0;points=[[0,0.5],[1,0.5]];portConstraint=eastwest;fontColor=#ffffff;opacity=40;" parent="6" vertex="1"><mxGeometry y="78" width="180" height="102" as="geometry"/></mxCell><mxCell id="19" value="Sort" style="swimlane;fontStyle=1;align=center;verticalAlign=top;childLayout=stackLayout;horizontal=1;startSize=26;horizontalStack=0;resizeParent=1;resizeParentMax=0;resizeLast=0;collapsible=1;marginBottom=0;fillColor=#1ba1e2;fontColor=#ffffff;strokeColor=#006EAF;opacity=40;" parent="WIyWlLk6GJQsqaUBKTNV-1" vertex="1"><mxGeometry x="246" y="20" width="250" height="150" as="geometry"/></mxCell><mxCell id="20" value="+ mdCollection: ArrayList&lt;MarkdownFIle&gt;&#10;- flag: Flag" style="text;strokeColor=#006EAF;fillColor=#1ba1e2;align=left;verticalAlign=top;spacingLeft=4;spacingRight=4;overflow=hidden;rotatable=0;points=[[0,0.5],[1,0.5]];portConstraint=eastwest;fontColor=#ffffff;opacity=40;" parent="19" vertex="1"><mxGeometry y="26" width="250" height="64" as="geometry"/></mxCell><mxCell id="21" value="" style="line;strokeWidth=1;fillColor=#1ba1e2;align=left;verticalAlign=middle;spacingTop=-1;spacingLeft=3;spacingRight=3;rotatable=0;labelPosition=right;points=[];portConstraint=eastwest;strokeColor=#006EAF;fontColor=#ffffff;opacity=40;" parent="19" vertex="1"><mxGeometry y="90" width="250" height="8" as="geometry"/></mxCell><mxCell id="22" value="+ sort(ArrayList&lt;MarkdownFile&gt;, Flag): void &#10;+ outputFile(Path): void&#10;+ writeToFile(File): void" style="text;strokeColor=#006EAF;fillColor=#1ba1e2;align=left;verticalAlign=top;spacingLeft=4;spacingRight=4;overflow=hidden;rotatable=0;points=[[0,0.5],[1,0.5]];portConstraint=eastwest;fontColor=#ffffff;opacity=40;" parent="19" vertex="1"><mxGeometry y="98" width="250" height="52" as="geometry"/></mxCell><mxCell id="25" style="edgeStyle=orthogonalEdgeStyle;rounded=0;orthogonalLoop=1;jettySize=auto;html=1;exitX=0.5;exitY=0;exitDx=0;exitDy=0;exitPerimeter=0;entryX=0.59;entryY=1.016;entryDx=0;entryDy=0;entryPerimeter=0;fillColor=#1ba1e2;strokeColor=#006EAF;opacity=40;" parent="WIyWlLk6GJQsqaUBKTNV-1" source="24" target="22" edge="1"><mxGeometry relative="1" as="geometry"><mxPoint x="520" y="250" as="targetPoint"/><Array as="points"><mxPoint x="388" y="240"/></Array></mxGeometry></mxCell><mxCell id="24" value="Sort class: Takes in the arraylist of markdownFiles&lt;br&gt;and sorts according to a given flag.&lt;br&gt;Also takes care of writing the sorted list to output file. Could change this so there is an outputfile class for PA2" style="shape=note;whiteSpace=wrap;html=1;backgroundOutline=1;darkOpacity=0.05;fontColor=#FF6666;fillColor=#1ba1e2;strokeColor=#006EAF;opacity=40;" parent="WIyWlLk6GJQsqaUBKTNV-1" vertex="1"><mxGeometry x="290" y="240" width="190" height="160" as="geometry"/></mxCell><mxCell id="28" value="stdin" style="shape=folder;fontStyle=1;spacingTop=10;tabWidth=40;tabHeight=14;tabPosition=left;html=1;whiteSpace=wrap;fillColor=#1ba1e2;fontColor=#FFFF33;strokeColor=#006EAF;opacity=40;" parent="WIyWlLk6GJQsqaUBKTNV-1" vertex="1"><mxGeometry x="-240" y="244" width="70" height="50" as="geometry"/></mxCell><mxCell id="29" value="stdout" style="shape=folder;fontStyle=1;spacingTop=10;tabWidth=40;tabHeight=14;tabPosition=left;html=1;whiteSpace=wrap;fillColor=#1ba1e2;fontColor=#FFFF33;strokeColor=#006EAF;opacity=40;" parent="WIyWlLk6GJQsqaUBKTNV-1" vertex="1"><mxGeometry x="-160" y="244" width="70" height="50" as="geometry"/></mxCell><mxCell id="30" value="Needed for both system.in and system.out commands. They are also needed for println and other functions needed for outputting final file.&amp;nbsp;" style="shape=note;whiteSpace=wrap;html=1;backgroundOutline=1;darkOpacity=0.05;fontColor=#FF6666;fillColor=#1ba1e2;strokeColor=#006EAF;opacity=40;" parent="WIyWlLk6GJQsqaUBKTNV-1" vertex="1"><mxGeometry x="-250" y="300" width="170" height="100" as="geometry"/></mxCell><mxCell id="31" value="Also need these standard libraries to include toString and other functions to convert fields to desired data types. Similar to how comparable class will be used." style="shape=note;whiteSpace=wrap;html=1;backgroundOutline=1;darkOpacity=0.05;fontColor=#FF6666;fillColor=#1ba1e2;strokeColor=#006EAF;opacity=40;" parent="WIyWlLk6GJQsqaUBKTNV-1" vertex="1"><mxGeometry x="-460" y="300" width="200" height="100" as="geometry"/></mxCell><mxCell id="33" value="" style="endArrow=block;dashed=1;endFill=0;endSize=12;html=1;rounded=0;entryX=0.5;entryY=1;entryDx=0;entryDy=0;exitX=0.5;exitY=0;exitDx=0;exitDy=0;fillColor=#1ba1e2;strokeColor=#006EAF;opacity=40;" parent="WIyWlLk6GJQsqaUBKTNV-1" source="z7qbPHOdlYPvQ8ULGpwd-12" target="z7qbPHOdlYPvQ8ULGpwd-37" edge="1"><mxGeometry width="160" relative="1" as="geometry"><mxPoint x="-60" y="-120" as="sourcePoint"/><mxPoint x="100" y="-120" as="targetPoint"/></mxGeometry></mxCell><mxCell id="42" value="Use" style="endArrow=open;endSize=12;dashed=1;html=1;rounded=0;fontColor=#FFFFFF;opacity=40;exitX=1;exitY=0.5;exitDx=0;exitDy=0;entryX=0;entryY=0.5;entryDx=0;entryDy=0;" parent="WIyWlLk6GJQsqaUBKTNV-1" source="z7qbPHOdlYPvQ8ULGpwd-15" target="z7qbPHOdlYPvQ8ULGpwd-31" edge="1"><mxGeometry width="160" relative="1" as="geometry"><mxPoint x="680" y="140" as="sourcePoint"/><mxPoint x="610" y="150" as="targetPoint"/></mxGeometry></mxCell><mxCell id="43" value="BLUE = PA1" style="rounded=0;whiteSpace=wrap;html=1;fillColor=#1ba1e2;fontColor=#ffffff;strokeColor=#006EAF;opacity=60;" parent="WIyWlLk6GJQsqaUBKTNV-1" vertex="1"><mxGeometry x="-120" y="-920" width="120" height="60" as="geometry"/></mxCell><mxCell id="44" value="GREEN = PA2&lt;br&gt;Additions" style="rounded=0;whiteSpace=wrap;html=1;opacity=60;fillColor=#008a00;fontColor=#ffffff;strokeColor=#005700;" parent="WIyWlLk6GJQsqaUBKTNV-1" vertex="1"><mxGeometry y="-920" width="120" height="60" as="geometry"/></mxCell><mxCell id="45" value="&lt;font style=&quot;font-size: 18px;&quot;&gt;LEGEND&lt;/font&gt;" style="rounded=1;whiteSpace=wrap;html=1;fillColor=#f5f5f5;strokeColor=#666666;fontColor=#333333;" parent="WIyWlLk6GJQsqaUBKTNV-1" vertex="1"><mxGeometry x="-100" y="-980" width="200" height="60" as="geometry"/></mxCell><mxCell id="46" value="Driver" style="swimlane;fontStyle=1;align=center;verticalAlign=top;childLayout=stackLayout;horizontal=1;startSize=26;horizontalStack=0;resizeParent=1;resizeParentMax=0;resizeLast=0;collapsible=1;marginBottom=0;fontSize=18;fillColor=#1ba1e2;fontColor=#ffffff;strokeColor=#006EAF;opacity=40;" parent="WIyWlLk6GJQsqaUBKTNV-1" vertex="1"><mxGeometry x="40" y="-290" width="180" height="60" as="geometry"/></mxCell><mxCell id="47" value="No explicit fields" style="text;strokeColor=#006EAF;fillColor=#1ba1e2;align=left;verticalAlign=top;spacingLeft=4;spacingRight=4;overflow=hidden;rotatable=0;points=[[0,0.5],[1,0.5]];portConstraint=eastwest;fontSize=18;fontColor=#ffffff;opacity=40;labelBackgroundColor=none;" parent="46" vertex="1"><mxGeometry y="26" width="180" height="26" as="geometry"/></mxCell><mxCell id="48" value="" style="line;strokeWidth=1;fillColor=#1ba1e2;align=left;verticalAlign=middle;spacingTop=-1;spacingLeft=3;spacingRight=3;rotatable=0;labelPosition=right;points=[];portConstraint=eastwest;strokeColor=#006EAF;fontSize=18;fontColor=#ffffff;opacity=40;" parent="46" vertex="1"><mxGeometry y="52" width="180" height="8" as="geometry"/></mxCell><mxCell id="53" value="Use" style="endArrow=open;endSize=12;dashed=1;html=1;rounded=0;fontColor=#FFFFFF;opacity=40;exitX=0.5;exitY=0;exitDx=0;exitDy=0;entryX=0.5;entryY=1;entryDx=0;entryDy=0;" parent="WIyWlLk6GJQsqaUBKTNV-1" source="z7qbPHOdlYPvQ8ULGpwd-12" target="z7qbPHOdlYPvQ8ULGpwd-37" edge="1"><mxGeometry width="160" relative="1" as="geometry"><mxPoint x="384" y="-253" as="sourcePoint"/><mxPoint x="444" y="-270" as="targetPoint"/></mxGeometry></mxCell><mxCell id="54" value="FilenameCompare" style="swimlane;fontStyle=1;align=center;verticalAlign=top;childLayout=stackLayout;horizontal=1;startSize=26;horizontalStack=0;resizeParent=1;resizeParentMax=0;resizeLast=0;collapsible=1;marginBottom=0;fontSize=12;opacity=40;fillColor=#1ba1e2;fontColor=#ffffff;strokeColor=#006EAF;" parent="WIyWlLk6GJQsqaUBKTNV-1" vertex="1"><mxGeometry x="-482.5" y="-150" width="160" height="80" as="geometry"/></mxCell><mxCell id="56" value="" style="line;strokeWidth=1;fillColor=#1ba1e2;align=left;verticalAlign=middle;spacingTop=-1;spacingLeft=3;spacingRight=3;rotatable=0;labelPosition=right;points=[];portConstraint=eastwest;strokeColor=#006EAF;fontSize=12;opacity=40;fontColor=#ffffff;" parent="54" vertex="1"><mxGeometry y="26" width="160" height="8" as="geometry"/></mxCell><mxCell id="57" value="+  compare &lt;MarkdownFile o1,&#10; MarkdownFile o2&gt;: Int" style="text;strokeColor=#006EAF;fillColor=#1ba1e2;align=left;verticalAlign=top;spacingLeft=4;spacingRight=4;overflow=hidden;rotatable=0;points=[[0,0.5],[1,0.5]];portConstraint=eastwest;fontSize=12;opacity=40;fontColor=#ffffff;" parent="54" vertex="1"><mxGeometry y="34" width="160" height="46" as="geometry"/></mxCell><mxCell id="58" value="CreatedCompare" style="swimlane;fontStyle=1;align=center;verticalAlign=top;childLayout=stackLayout;horizontal=1;startSize=26;horizontalStack=0;resizeParent=1;resizeParentMax=0;resizeLast=0;collapsible=1;marginBottom=0;fontSize=12;opacity=40;fillColor=#1ba1e2;fontColor=#ffffff;strokeColor=#006EAF;" parent="WIyWlLk6GJQsqaUBKTNV-1" vertex="1"><mxGeometry x="-310" y="-150" width="160" height="80" as="geometry"/></mxCell><mxCell id="60" value="" style="line;strokeWidth=1;fillColor=#1ba1e2;align=left;verticalAlign=middle;spacingTop=-1;spacingLeft=3;spacingRight=3;rotatable=0;labelPosition=right;points=[];portConstraint=eastwest;strokeColor=#006EAF;fontSize=12;opacity=40;fontColor=#ffffff;" parent="58" vertex="1"><mxGeometry y="26" width="160" height="8" as="geometry"/></mxCell><mxCell id="61" value="+  compare &lt;MarkdownFile o1,&#10; MarkdownFile o2&gt;: Int" style="text;strokeColor=#006EAF;fillColor=#1ba1e2;align=left;verticalAlign=top;spacingLeft=4;spacingRight=4;overflow=hidden;rotatable=0;points=[[0,0.5],[1,0.5]];portConstraint=eastwest;fontSize=12;opacity=40;fontColor=#ffffff;" parent="58" vertex="1"><mxGeometry y="34" width="160" height="46" as="geometry"/></mxCell><mxCell id="62" value="ModifiedCompare" style="swimlane;fontStyle=1;align=center;verticalAlign=top;childLayout=stackLayout;horizontal=1;startSize=26;horizontalStack=0;resizeParent=1;resizeParentMax=0;resizeLast=0;collapsible=1;marginBottom=0;fontSize=12;opacity=40;fillColor=#1ba1e2;fontColor=#ffffff;strokeColor=#006EAF;" parent="WIyWlLk6GJQsqaUBKTNV-1" vertex="1"><mxGeometry x="-140" y="-150" width="160" height="80" as="geometry"/></mxCell><mxCell id="64" value="" style="line;strokeWidth=1;fillColor=#1ba1e2;align=left;verticalAlign=middle;spacingTop=-1;spacingLeft=3;spacingRight=3;rotatable=0;labelPosition=right;points=[];portConstraint=eastwest;strokeColor=#006EAF;fontSize=12;opacity=40;fontColor=#ffffff;" parent="62" vertex="1"><mxGeometry y="26" width="160" height="8" as="geometry"/></mxCell><mxCell id="65" value="+  compare &lt;MarkdownFile o1,&#10; MarkdownFile o2&gt;: Int" style="text;strokeColor=#006EAF;fillColor=#1ba1e2;align=left;verticalAlign=top;spacingLeft=4;spacingRight=4;overflow=hidden;rotatable=0;points=[[0,0.5],[1,0.5]];portConstraint=eastwest;fontSize=12;opacity=40;fontColor=#ffffff;" parent="62" vertex="1"><mxGeometry y="34" width="160" height="46" as="geometry"/></mxCell><mxCell id="66" value="&lt;p style=&quot;margin:0px;margin-top:4px;text-align:center;&quot;&gt;&lt;i&gt;&amp;lt;&amp;lt;Abstract&amp;gt;&amp;gt;&lt;/i&gt;&lt;br&gt;&lt;b&gt;AbsCompare implements&amp;nbsp;&lt;/b&gt;&lt;/p&gt;&lt;p style=&quot;margin:0px;margin-top:4px;text-align:center;&quot;&gt;&lt;b&gt;Comparable&amp;lt;MarkdownFile&amp;gt;&lt;/b&gt;&lt;/p&gt;&lt;hr size=&quot;1&quot;&gt;&lt;p style=&quot;margin:0px;margin-left:4px;&quot;&gt;// No Fields&lt;/p&gt;&lt;hr size=&quot;1&quot;&gt;&lt;p style=&quot;margin:0px;margin-left:4px;&quot;&gt;&lt;span style=&quot;color: rgb(255, 255, 255);&quot;&gt;+&amp;nbsp; compare &amp;lt;MarkdownFile o1,&lt;/span&gt;&lt;/p&gt;&lt;p style=&quot;margin:0px;margin-left:4px;&quot;&gt;&lt;span style=&quot;color: rgb(255, 255, 255);&quot;&gt;&amp;nbsp;MarkdownFile o2&amp;gt;: Int&lt;/span&gt;&lt;br&gt;&lt;/p&gt;" style="verticalAlign=top;align=left;overflow=fill;fontSize=12;fontFamily=Helvetica;html=1;opacity=40;fillColor=#1ba1e2;fontColor=#ffffff;strokeColor=#006EAF;" parent="WIyWlLk6GJQsqaUBKTNV-1" vertex="1"><mxGeometry x="-405" y="-390" width="325" height="140" as="geometry"/></mxCell><mxCell id="67" value="" style="endArrow=block;dashed=1;endFill=0;endSize=12;html=1;rounded=0;fontSize=12;exitX=0.5;exitY=0;exitDx=0;exitDy=0;entryX=0.5;entryY=1;entryDx=0;entryDy=0;" parent="WIyWlLk6GJQsqaUBKTNV-1" source="66" target="z7qbPHOdlYPvQ8ULGpwd-23" edge="1"><mxGeometry width="160" relative="1" as="geometry"><mxPoint x="-160" y="-255" as="sourcePoint"/><mxPoint x="80" y="-445" as="targetPoint"/></mxGeometry></mxCell><mxCell id="73" value="Extends" style="endArrow=block;endSize=16;endFill=0;html=1;rounded=0;strokeColor=#FFFF33;fontSize=12;exitX=0.5;exitY=0;exitDx=0;exitDy=0;entryX=0.5;entryY=1;entryDx=0;entryDy=0;" parent="WIyWlLk6GJQsqaUBKTNV-1" source="54" target="66" edge="1"><mxGeometry width="160" relative="1" as="geometry"><mxPoint x="-210" y="-250" as="sourcePoint"/><mxPoint x="-50" y="-250" as="targetPoint"/></mxGeometry></mxCell><mxCell id="74" value="Extends" style="endArrow=block;endSize=16;endFill=0;html=1;rounded=0;strokeColor=#FFFF33;fontSize=12;exitX=0.5;exitY=0;exitDx=0;exitDy=0;" parent="WIyWlLk6GJQsqaUBKTNV-1" source="58" edge="1"><mxGeometry width="160" relative="1" as="geometry"><mxPoint x="-392.5" y="-140" as="sourcePoint"/><mxPoint x="-218" y="-240" as="targetPoint"/></mxGeometry></mxCell><mxCell id="75" value="Extends" style="endArrow=block;endSize=16;endFill=0;html=1;rounded=0;strokeColor=#FFFF33;fontSize=12;exitX=0.5;exitY=0;exitDx=0;exitDy=0;entryX=0.585;entryY=1.023;entryDx=0;entryDy=0;entryPerimeter=0;" parent="WIyWlLk6GJQsqaUBKTNV-1" source="62" target="66" edge="1"><mxGeometry width="160" relative="1" as="geometry"><mxPoint x="-382.5" y="-130" as="sourcePoint"/><mxPoint x="-207.50000000000023" y="-220" as="targetPoint"/></mxGeometry></mxCell><mxCell id="76" value="&lt;font&gt;Called in Sort class and need an object comparator&lt;br&gt;// Abstract class is created and then sort is called with object and dispatched to given type for given sort&amp;nbsp;&lt;/font&gt;" style="shape=note;whiteSpace=wrap;html=1;backgroundOutline=1;darkOpacity=0.05;fontSize=12;opacity=40;size=18;fillColor=#1ba1e2;fontColor=#FF6666;strokeColor=#006EAF;" parent="WIyWlLk6GJQsqaUBKTNV-1" vertex="1"><mxGeometry x="-650" y="-220" width="150" height="150" as="geometry"/></mxCell><mxCell id="77" value="Problem (model)" style="swimlane;fontStyle=1;align=center;verticalAlign=top;childLayout=stackLayout;horizontal=1;startSize=26;horizontalStack=0;resizeParent=1;resizeParentMax=0;resizeLast=0;collapsible=1;marginBottom=0;fillColor=#008A00;opacity=60;" parent="WIyWlLk6GJQsqaUBKTNV-1" vertex="1"><mxGeometry y="-850" width="230" height="250" as="geometry"/></mxCell><mxCell id="78" value="- question: String&#10;- answer: String&#10;- difficulty: boolean" style="text;strokeColor=none;fillColor=#008A00;align=left;verticalAlign=top;spacingLeft=4;spacingRight=4;overflow=hidden;rotatable=0;points=[[0,0.5],[1,0.5]];portConstraint=eastwest;opacity=60;" parent="77" vertex="1"><mxGeometry y="26" width="230" height="54" as="geometry"/></mxCell><mxCell id="79" value="" style="line;strokeWidth=1;fillColor=#008A00;align=left;verticalAlign=middle;spacingTop=-1;spacingLeft=3;spacingRight=3;rotatable=0;labelPosition=right;points=[];portConstraint=eastwest;strokeColor=inherit;opacity=60;" parent="77" vertex="1"><mxGeometry y="80" width="230" height="8" as="geometry"/></mxCell><mxCell id="80" value="- getQuestion(): String&#10;- setQuestion(String): void&#10;- getAnswer(): String&#10;- setAnswer(String): void&#10;- getDifficulty(): bool&#10;- setDifficulty(bool): void //defualt is hard&#10;- createProblem(): Problem&#10;- ProblemtoString(): String&#10; " style="text;strokeColor=none;fillColor=#008A00;align=left;verticalAlign=top;spacingLeft=4;spacingRight=4;overflow=hidden;rotatable=0;points=[[0,0.5],[1,0.5]];portConstraint=eastwest;opacity=60;" parent="77" vertex="1"><mxGeometry y="88" width="230" height="162" as="geometry"/></mxCell><mxCell id="82" value="ProblemBank (Model)" style="swimlane;fontStyle=1;align=center;verticalAlign=top;childLayout=stackLayout;horizontal=1;startSize=26;horizontalStack=0;resizeParent=1;resizeParentMax=0;resizeLast=0;collapsible=1;marginBottom=0;fillColor=#008A00;opacity=60;" parent="WIyWlLk6GJQsqaUBKTNV-1" vertex="1"><mxGeometry x="250" y="-810" width="240" height="340" as="geometry"/></mxCell><mxCell id="83" value="+ problemCollection: ArrayList&lt;Problems&gt; &#10;+ hardTotal: int&#10;+ easyTotal: int&#10;+ answered: int&#10;+ correct: int&#10;&#10;" style="text;strokeColor=none;fillColor=#008A00;align=left;verticalAlign=top;spacingLeft=4;spacingRight=4;overflow=hidden;rotatable=0;points=[[0,0.5],[1,0.5]];portConstraint=eastwest;opacity=60;" parent="82" vertex="1"><mxGeometry y="26" width="240" height="84" as="geometry"/></mxCell><mxCell id="84" value="" style="line;strokeWidth=1;fillColor=#008A00;align=left;verticalAlign=middle;spacingTop=-1;spacingLeft=3;spacingRight=3;rotatable=0;labelPosition=right;points=[];portConstraint=eastwest;strokeColor=inherit;opacity=60;" parent="82" vertex="1"><mxGeometry y="110" width="240" height="8" as="geometry"/></mxCell><mxCell id="85" value="+ buildProblemCollection(): ProblemBank&#10;+ buildHardCollection(): ProblemBank&#10;+ buildEasyCollection(): ProblemBank&#10;+ appendProblem(): ProblemBank&#10;+ outputToFile(): void // Should create &#10;//output and input classes&#10;+ getHardTotal(): int&#10;+ getEasyTotal(): int&#10;+ setHardTotal(): void&#10;+ setEasyTotal(): void&#10;+ totalDiffChange(): int&#10;+ getAnswered(): int&#10;+ setAnswered(): void&#10;+ getCorrect(): int&#10;+ setCorrect(): void&#10;&#10;" style="text;strokeColor=none;fillColor=#008A00;align=left;verticalAlign=top;spacingLeft=4;spacingRight=4;overflow=hidden;rotatable=0;points=[[0,0.5],[1,0.5]];portConstraint=eastwest;opacity=60;" parent="82" vertex="1"><mxGeometry y="118" width="240" height="222" as="geometry"/></mxCell><mxCell id="91" value="Use" style="endArrow=open;endSize=12;dashed=1;html=1;rounded=0;exitX=0.5;exitY=0;exitDx=0;exitDy=0;entryX=0.5;entryY=0;entryDx=0;entryDy=0;" parent="WIyWlLk6GJQsqaUBKTNV-1" source="77" target="82" edge="1"><mxGeometry width="160" relative="1" as="geometry"><mxPoint x="270" y="-720" as="sourcePoint"/><mxPoint x="375" y="-740" as="targetPoint"/><Array as="points"><mxPoint x="270" y="-880"/></Array></mxGeometry></mxCell><mxCell id="94" value="ProblemController" style="swimlane;fontStyle=1;align=center;verticalAlign=top;childLayout=stackLayout;horizontal=1;startSize=26;horizontalStack=0;resizeParent=1;resizeParentMax=0;resizeLast=0;collapsible=1;marginBottom=0;labelBackgroundColor=none;fontColor=#FFFFFF;fillColor=#008A00;opacity=60;" parent="WIyWlLk6GJQsqaUBKTNV-1" vertex="1"><mxGeometry x="20" y="-584.5" width="190" height="270" as="geometry"/></mxCell><mxCell id="95" value="- model: ProblemBank&#10;- view: ProblemView" style="text;strokeColor=none;fillColor=#008A00;align=left;verticalAlign=top;spacingLeft=4;spacingRight=4;overflow=hidden;rotatable=0;points=[[0,0.5],[1,0.5]];portConstraint=eastwest;labelBackgroundColor=none;fontColor=#FFFFFF;opacity=60;" parent="94" vertex="1"><mxGeometry y="26" width="190" height="44" as="geometry"/></mxCell><mxCell id="96" value="" style="line;strokeWidth=1;fillColor=#008A00;align=left;verticalAlign=middle;spacingTop=-1;spacingLeft=3;spacingRight=3;rotatable=0;labelPosition=right;points=[];portConstraint=eastwest;strokeColor=inherit;labelBackgroundColor=none;fontColor=#FFFFFF;opacity=60;" parent="94" vertex="1"><mxGeometry y="70" width="190" height="8" as="geometry"/></mxCell><mxCell id="97" value="+ updateView(): void&#10;+ updateProblem(Problem): void&#10;+ startScreen(): void&#10;+ getBankSize(): void&#10;+ finalScreen(): void&#10;+ readFile(): String&#10;+ buildTestBank(): ProblemBank&#10;+ markHard(): void&#10;+ markEasy(): void&#10;+ getAnswer(): String&#10;+ isCorrect(): Boolean&#10;" style="text;strokeColor=none;fillColor=#008A00;align=left;verticalAlign=top;spacingLeft=4;spacingRight=4;overflow=hidden;rotatable=0;points=[[0,0.5],[1,0.5]];portConstraint=eastwest;labelBackgroundColor=none;fontColor=#FFFFFF;opacity=60;" parent="94" vertex="1"><mxGeometry y="78" width="190" height="192" as="geometry"/></mxCell><mxCell id="108" value="Use" style="endArrow=open;endSize=12;dashed=1;html=1;rounded=0;fontColor=#FFFFFF;exitX=0;exitY=0.5;exitDx=0;exitDy=0;entryX=1;entryY=0.5;entryDx=0;entryDy=0;" parent="WIyWlLk6GJQsqaUBKTNV-1" source="85" target="95" edge="1"><mxGeometry width="160" relative="1" as="geometry"><mxPoint x="110" y="-530" as="sourcePoint"/><mxPoint x="270" y="-530" as="targetPoint"/></mxGeometry></mxCell><mxCell id="109" value="Use" style="endArrow=open;endSize=12;dashed=1;html=1;rounded=0;fontColor=#FFFFFF;exitX=0.25;exitY=0;exitDx=0;exitDy=0;entryX=0.714;entryY=1.025;entryDx=0;entryDy=0;entryPerimeter=0;" parent="WIyWlLk6GJQsqaUBKTNV-1" source="94" target="113" edge="1"><mxGeometry width="160" relative="1" as="geometry"><mxPoint x="-90" y="-640" as="sourcePoint"/><mxPoint x="100" y="-760" as="targetPoint"/><Array as="points"><mxPoint x="-60" y="-590"/></Array></mxGeometry></mxCell><mxCell id="110" value="ProblemView" style="swimlane;fontStyle=1;align=center;verticalAlign=top;childLayout=stackLayout;horizontal=1;startSize=26;horizontalStack=0;resizeParent=1;resizeParentMax=0;resizeLast=0;collapsible=1;marginBottom=0;labelBackgroundColor=none;fontColor=#FFFFFF;fillColor=#008A00;opacity=60;" parent="WIyWlLk6GJQsqaUBKTNV-1" vertex="1"><mxGeometry x="-210" y="-740" width="170" height="114" as="geometry"/></mxCell><mxCell id="112" value="" style="line;strokeWidth=1;fillColor=#008A00;align=left;verticalAlign=middle;spacingTop=-1;spacingLeft=3;spacingRight=3;rotatable=0;labelPosition=right;points=[];portConstraint=eastwest;strokeColor=inherit;labelBackgroundColor=#008A00;fontColor=#FFFFFF;opacity=60;" parent="110" vertex="1"><mxGeometry y="26" width="170" height="8" as="geometry"/></mxCell><mxCell id="113" value="+ printUserView(): void&#10;// need to abstract output class" style="text;strokeColor=none;fillColor=#008A00;align=left;verticalAlign=top;spacingLeft=4;spacingRight=4;overflow=hidden;rotatable=0;points=[[0,0.5],[1,0.5]];portConstraint=eastwest;labelBackgroundColor=none;fontColor=#FFFFFF;opacity=60;" parent="110" vertex="1"><mxGeometry y="34" width="170" height="80" as="geometry"/></mxCell><mxCell id="49" value=" No explicit methods&#10;// - Must intake 3 &#10;strings and turn them&#10;into: inFile.Path,&#10;outputFile.Path, and&#10;Flag &#10;// - Must create new &#10;FileExplorer object &#10;and .walkFileTree(obj)&#10;// - Finally, must create&#10;Sort object to take in&#10;list, sort, and output &#10;+ InputType(String[] args): Bool&#10;" style="text;strokeColor=#006EAF;fillColor=#1ba1e2;align=left;verticalAlign=top;spacingLeft=4;spacingRight=4;overflow=hidden;rotatable=0;points=[[0,0.5],[1,0.5]];portConstraint=eastwest;fontSize=12;fontColor=#FFFFFF;opacity=40;labelBackgroundColor=#008A00;" parent="WIyWlLk6GJQsqaUBKTNV-1" vertex="1"><mxGeometry x="640" y="-238" width="180" height="200" as="geometry"/></mxCell></root></mxGraphModel></diagram></mxfile>